<svg xmlns="http://www.w3.org/2000/svg" xmlns:xlink="http://www.w3.org/1999/xlink" viewBox="0 0 257.94 165.75"><defs><style>.cls-1{fill:none;clip-rule:evenodd;}.cls-2{clip-path:url(#clip-path);}.cls-3{fill:url(#linear-gradient);}</style><clipPath id="clip-path"><path class="cls-1" d="M120.32,23.13C107.11,15.61,98.43,11.26,76.6,11.26S27.26,25.12,16.8,45.39c-9.27,18-9.37,39.72-.3,60.32a90.46,90.46,0,0,0,25.17,33.06A94.15,94.15,0,0,0,74,156.23a86.51,86.51,0,0,0,10.91,2.59,66.5,66.5,0,0,1-15-14.2,60.45,60.45,0,0,1-10.16-19.9c-4.44-15.2-12.35-12.2-17.08-26.64C38.4,85.27,39,63.13,48.81,63.13s22.35,22.15,25,34.93c3,14.09-6.36,12-2.77,26.66,4.15,17,12.51,26.32,22.06,30.6,9.17,4.12,20.28,4,30.77.57A67.27,67.27,0,0,1,86.65,105.7a81.15,81.15,0,0,1,4.22-41.15,99.75,99.75,0,0,1,29.45-41.42M173.51,158.8a92.5,92.5,0,0,0,38.33-16.37c12.39-9,22.22-18.87,30.1-36.78s8.86-42.26-.42-60.25c-10.47-20.27-38-34.14-59.8-34.14S151.2,15.61,138,23.15a99.72,99.72,0,0,1,29.44,41.41,80.84,80.84,0,0,1,4.29,41.11,69.84,69.84,0,0,1-13.41,31.16A65.71,65.71,0,0,1,134.85,156l.76.27c13.72,4.63,24.76,2.76,33.14-2.79,8.86-5.87,15.48-16.36,18.51-28.74,3.6-14.63-5.69-12.57-2.74-26.65,2.15-10.28,4.48-21.4,7-33.48a1.75,1.75,0,0,1,1.61-1.38h3.18a1,1,0,0,1,1,1.38c-2.84,12.42-5.46,23.84-7.87,34.38a1.05,1.05,0,0,0,1.08,1.34h1.61a1.85,1.85,0,0,0,1.71-1.34c2.58-10.54,5.39-22,8.44-34.38a1.87,1.87,0,0,1,1.65-1.38h1.77a1,1,0,0,1,1,1.38c-3.23,12.41-6.21,23.84-9,34.38a1,1,0,0,0,1,1.34h1.62a2,2,0,0,0,1.75-1.34c2.92-10.54,6.08-22,9.52-34.38a2,2,0,0,1,1.7-1.38h1.76a1,1,0,0,1,.91,1.38C212.37,77,209,88.4,206,98.94a1,1,0,0,0,1,1.34h1.61a2,2,0,0,0,1.8-1.34c3.25-10.54,6.77-22,10.6-34.38a2,2,0,0,1,1.74-1.38h3.21c.71,0,1.08.63.83,1.38q-5.94,18.09-11,33.47c-4.76,14.45-12.64,11.44-17.11,26.66a60.74,60.74,0,0,1-10.16,19.88A67.71,67.71,0,0,1,173.51,158.8Zm-45.58-22.33L98,122.4A60.25,60.25,0,0,0,110.72,141,63.12,63.12,0,0,0,128,153.14Q128,145.24,127.93,136.47Zm2.43,16.67A63.43,63.43,0,0,0,151,137.3q-10.64,4.77-20.64,9.28Q130.37,149.94,130.36,153.14Zm0-8.75q11.31-5.16,23.45-10.64a61.83,61.83,0,0,0,10.79-25.26l-34.14,16.85Q130.46,135.41,130.41,144.39Zm.12-21.69q16.49-8.26,34.61-17.28a70.72,70.72,0,0,0-1-24.32q-17.5,9.59-33.49,18.33Q130.59,111.79,130.53,122.7Zm.13-26.5L163.43,78a84.4,84.4,0,0,0-10.75-24.3c-7.53,4.62-14.79,9.13-21.87,13.46C130.76,77.53,130.71,87.17,130.66,96.2Zm.17-33.13c6.42-4,13-8.14,19.81-12.36A93.67,93.67,0,0,0,131,30.28C130.94,42,130.89,52.87,130.83,63.07ZM127.3,30.28a98.18,98.18,0,0,0-8.41,7.25c2.85,1.91,5.68,3.81,8.49,5.65C127.35,39,127.33,34.71,127.3,30.28Zm.1,17.59c-3.74-2.44-7.52-4.89-11.35-7.43A89.91,89.91,0,0,0,99.82,64.3q14.37,8.46,27.78,16.29C127.54,70.46,127.47,59.59,127.4,47.87Zm.22,36.37c-9.37-5.39-19.06-11-29.15-16.86a76,76,0,0,0-5.72,24.37l35,18.39C127.73,102.06,127.68,93.45,127.62,84.24Zm.18,28.82c-11.22-5.79-22.92-11.86-35.2-18.23a65.6,65.6,0,0,0,.66,10.87,68,68,0,0,0,3.4,13.54l31.26,14.83C127.88,127.46,127.84,120.48,127.8,113.06ZM129,160.75C96.48,171.31,61.8,165,35.16,143A99.6,99.6,0,0,1,7.48,106.59C-2.1,84.83-3,60.16,8,38.77,19.79,15.88,50.14,0,75.47,0c18.7,0,40.15,5.78,53.5,16,13.34-10.21,34.79-16,53.5-16C207.79,0,238.14,15.88,250,38.77c11,21.39,10.08,46.06.5,67.82A99.6,99.6,0,0,1,222.78,143C196.14,165,161.46,171.31,129,160.75Z"/></clipPath><linearGradient id="linear-gradient" x1="128.97" y1="-33.77" x2="128.97" y2="208.62" gradientUnits="userSpaceOnUse"><stop offset="0" stop-color="#9dce13"/><stop offset="1" stop-color="#063"/></linearGradient></defs><g id="Слой_2" data-name="Слой 2"><g id="Layer_1" data-name="Layer 1"><g class="cls-2"><rect class="cls-3" x="-3.05" width="264.04" height="171.31"/></g></g></g></svg>